<?xml version="1.0" encoding="UTF-8"?>
<svg width="700pt" height="700pt" version="1.1" viewBox="0 0 700 700" xmlns="http://www.w3.org/2000/svg" xmlns:xlink="http://www.w3.org/1999/xlink">
 <defs>
  <symbol id="l" overflow="visible">
   <path d="m37.516-2.25c-1.9297 1.0117-3.9453 1.7734-6.0469 2.2812-2.0938 0.50781-4.2812 0.76562-6.5625 0.76562-6.793 0-12.18-1.8984-16.156-5.7031-3.9688-3.8008-5.9531-8.957-5.9531-15.469 0-6.5195 1.9844-11.68 5.9531-15.484 3.9766-3.8008 9.3633-5.7031 16.156-5.7031 2.2812 0 4.4688 0.25781 6.5625 0.76562 2.1016 0.51172 4.1172 1.2656 6.0469 2.2656v8.4531c-1.9492-1.332-3.8711-2.3047-5.7656-2.9219-1.8984-0.625-3.8906-0.9375-5.9844-0.9375-3.7617 0-6.7188 1.2031-8.875 3.6094-2.1484 2.4062-3.2188 5.7266-3.2188 9.9531 0 4.2109 1.0703 7.5156 3.2188 9.9219 2.1562 2.4062 5.1133 3.6094 8.875 3.6094 2.0938 0 4.0859-0.30469 5.9844-0.92188 1.8945-0.625 3.8164-1.5977 5.7656-2.9219z"/>
  </symbol>
  <symbol id="h" overflow="visible">
   <path d="m27.453-22.281c-0.85547-0.40625-1.7109-0.70312-2.5625-0.89062-0.84375-0.19531-1.6953-0.29688-2.5469-0.29688-2.5234 0-4.4609 0.80859-5.8125 2.4219-1.3555 1.6172-2.0312 3.9297-2.0312 6.9375v14.109h-9.7969v-30.625h9.7969v5.0312c1.25-2.0078 2.6914-3.4727 4.3281-4.3906 1.6328-0.91406 3.5859-1.375 5.8594-1.375 0.33203 0 0.6875 0.015625 1.0625 0.046875 0.38281 0.023438 0.94141 0.078125 1.6719 0.17188z"/>
  </symbol>
  <symbol id="a" overflow="visible">
   <path d="m35.281-15.391v2.7812h-22.891c0.23828 2.3047 1.0664 4.0273 2.4844 5.1719 1.4258 1.1484 3.4141 1.7188 5.9688 1.7188 2.0508 0 4.1562-0.30078 6.3125-0.90625 2.1641-0.61328 4.3906-1.5391 6.6719-2.7812v7.5469c-2.3125 0.875-4.6328 1.5391-6.9531 1.9844-2.3125 0.44531-4.625 0.67188-6.9375 0.67188-5.543 0-9.8516-1.4062-12.922-4.2188-3.0742-2.8203-4.6094-6.7734-4.6094-11.859 0-5 1.5039-8.9258 4.5156-11.781 3.0195-2.8633 7.1758-4.2969 12.469-4.2969 4.8125 0 8.6602 1.4492 11.547 4.3438 2.8945 2.8984 4.3438 6.7734 4.3438 11.625zm-10.062-3.2656c0-1.8516-0.54688-3.3477-1.6406-4.4844-1.0859-1.1445-2.5-1.7188-4.25-1.7188-1.8984 0-3.4375 0.53906-4.625 1.6094-1.1797 1.0625-1.9141 2.5938-2.2031 4.5938z"/>
  </symbol>
  <symbol id="g" overflow="visible">
   <path d="m18.438-13.781c-2.043 0-3.5781 0.35156-4.6094 1.0469-1.0312 0.6875-1.5469 1.7031-1.5469 3.0469 0 1.2422 0.41016 2.2148 1.2344 2.9219 0.83203 0.69922 1.9883 1.0469 3.4688 1.0469 1.8438 0 3.3906-0.66016 4.6406-1.9844 1.2578-1.3203 1.8906-2.9727 1.8906-4.9531v-1.125zm14.953-3.6875v17.469h-9.875v-4.5469c-1.3125 1.8672-2.793 3.2266-4.4375 4.0781-1.6367 0.84375-3.6328 1.2656-5.9844 1.2656-3.168 0-5.7422-0.92578-7.7188-2.7812-1.9805-1.8516-2.9688-4.2539-2.9688-7.2031 0-3.5938 1.2344-6.2266 3.7031-7.9062 2.4688-1.6758 6.3477-2.5156 11.641-2.5156h5.7656v-0.76562c0-1.5508-0.60938-2.6875-1.8281-3.4062s-3.125-1.0781-5.7188-1.0781c-2.0938 0-4.0469 0.21484-5.8594 0.64062-1.8047 0.41797-3.4766 1.043-5.0156 1.875v-7.4688c2.0938-0.50781 4.1953-0.89453 6.3125-1.1562 2.1133-0.25781 4.2266-0.39062 6.3438-0.39062 5.5195 0 9.5039 1.0898 11.953 3.2656 2.457 2.1797 3.6875 5.7188 3.6875 10.625z"/>
  </symbol>
  <symbol id="f" overflow="visible">
   <path d="m15.391-39.328v8.7031h10.094v7h-10.094v12.984c0 1.4297 0.28125 2.3906 0.84375 2.8906 0.57031 0.5 1.6953 0.75 3.375 0.75h5.0312v7h-8.3906c-3.8672 0-6.6055-0.80469-8.2188-2.4219-1.6172-1.6133-2.4219-4.3516-2.4219-8.2188v-12.984h-4.875v-7h4.875v-8.7031z"/>
  </symbol>
  <symbol id="e" overflow="visible">
   <path d="m25.547-26.141v-16.406h9.8438v42.547h-9.8438v-4.4375c-1.3555 1.8125-2.8438 3.1406-4.4688 3.9844-1.6172 0.83203-3.4922 1.25-5.625 1.25-3.7734 0-6.8711-1.5-9.2969-4.5-2.4297-3-3.6406-6.8594-3.6406-11.578 0-4.7266 1.2109-8.5859 3.6406-11.578 2.4258-3 5.5234-4.5 9.2969-4.5 2.1133 0 3.9844 0.42188 5.6094 1.2656 1.6328 0.84375 3.1289 2.1641 4.4844 3.9531zm-6.4531 19.828c2.0938 0 3.6914-0.76562 4.7969-2.2969 1.1016-1.5312 1.6562-3.7539 1.6562-6.6719 0-2.9141-0.55469-5.1406-1.6562-6.6719-1.1055-1.5312-2.7031-2.2969-4.7969-2.2969-2.0859 0-3.6797 0.76562-4.7812 2.2969-1.1055 1.5312-1.6562 3.7578-1.6562 6.6719 0 2.918 0.55078 5.1406 1.6562 6.6719 1.1016 1.5312 2.6953 2.2969 4.7812 2.2969z"/>
  </symbol>
  <symbol id="d" overflow="visible">
   <path d="m21-6.3125c2.0938 0 3.6914-0.76562 4.7969-2.2969 1.1016-1.5312 1.6562-3.7539 1.6562-6.6719 0-2.9141-0.55469-5.1406-1.6562-6.6719-1.1055-1.5312-2.7031-2.2969-4.7969-2.2969s-3.7031 0.77344-4.8281 2.3125c-1.1172 1.5312-1.6719 3.75-1.6719 6.6562 0 2.8984 0.55469 5.1172 1.6719 6.6562 1.125 1.543 2.7344 2.3125 4.8281 2.3125zm-6.5-19.828c1.3438-1.7891 2.832-3.1094 4.4688-3.9531 1.6445-0.84375 3.5352-1.2656 5.6719-1.2656 3.7695 0 6.8672 1.5 9.2969 4.5 2.4258 2.9922 3.6406 6.8516 3.6406 11.578 0 4.7188-1.2148 8.5781-3.6406 11.578-2.4297 3-5.5273 4.5-9.2969 4.5-2.1367 0-4.0273-0.42188-5.6719-1.2656-1.6367-0.85156-3.125-2.1758-4.4688-3.9688v4.4375h-9.7969v-42.547h9.7969z"/>
  </symbol>
  <symbol id="c" overflow="visible">
   <path d="m0.6875-30.625h9.7812l8.2344 20.781 7-20.781h9.7969l-12.891 33.531c-1.293 3.4062-2.8047 5.7852-4.5312 7.1406-1.7188 1.3633-3.9922 2.0469-6.8125 2.0469h-5.6562v-6.4375h3.0625c1.6562 0 2.8594-0.26562 3.6094-0.79688 0.75781-0.52344 1.3516-1.4648 1.7812-2.8281l0.26562-0.85938z"/>
  </symbol>
  <symbol id="b" overflow="visible">
   <path d="m5.1406-40.828h10.531v14.906l15.172-14.906h12.219l-19.656 19.328 21.688 21.5h-13.188l-16.234-16.078v16.078h-10.531z"/>
  </symbol>
  <symbol id="k" overflow="visible">
   <path d="m4.7031-30.625h9.7969v30.625h-9.7969zm0-11.922h9.7969v7.9844h-9.7969z"/>
  </symbol>
  <symbol id="j" overflow="visible">
   <path d="m29.453-29.672v7.9844c-1.3359-0.90625-2.6719-1.5781-4.0156-2.0156-1.3359-0.4375-2.7188-0.65625-4.1562-0.65625-2.7422 0-4.8711 0.79688-6.3906 2.3906-1.5234 1.5938-2.2812 3.8242-2.2812 6.6875 0 2.8555 0.75781 5.0859 2.2812 6.6875 1.5195 1.5938 3.6484 2.3906 6.3906 2.3906 1.5312 0 2.9844-0.22656 4.3594-0.6875 1.375-0.45703 2.6445-1.1328 3.8125-2.0312v8.0156c-1.5312 0.5625-3.0898 0.98438-4.6719 1.2656-1.5742 0.28906-3.1523 0.4375-4.7344 0.4375-5.5234 0-9.8438-1.4141-12.969-4.25-3.1172-2.8438-4.6719-6.7852-4.6719-11.828 0-5.0508 1.5547-8.9922 4.6719-11.828 3.125-2.832 7.4453-4.25 12.969-4.25 1.6016 0 3.1797 0.14062 4.7344 0.42188 1.5625 0.28125 3.1172 0.70312 4.6719 1.2656z"/>
  </symbol>
  <symbol id="i" overflow="visible">
   <path d="m4.7031-42.547h9.7969v23.156l11.266-11.234h11.375l-14.969 14.047 16.141 16.578h-11.875l-11.938-12.766v12.766h-9.7969z"/>
  </symbol>
 </defs>
 <g>
  <path d="m399.18 287.18c-5.3086-0.84375-9.3242-3.3438-8.9688-5.5859 0.35547-2.2422 4.9492-3.3789 10.258-2.5352s9.3242 3.3438 8.9688 5.5859c-0.35938 2.2422-4.9492 3.375-10.258 2.5352"/>
  <path d="m406.77 248.59c-52.707-8.332-101.43 23.004-108.86 69.965-7.4375 46.961 29.266 91.828 81.961 100.15 52.695 8.332 101.43-22.992 108.86-69.977 7.4141-46.977-29.266-91.809-81.961-100.14zm-4.1992 14.504c16.957 2.6758 29.559 12.129 28.145 21.113-1.4219 9.0039-16.328 14.125-33.273 11.434-16.957-2.6875-29.535-12.152-28.145-21.133 1.4297-8.9727 16.348-14.105 33.273-11.414zm-93.297 60.793c-2.0273 12.902-0.22266 25.637 4.6133 37.32-6.1133-12.691-8.6562-26.777-6.4062-41.125 4.8164-30.25 29.309-53.66 61.363-60.848-2.4648 1.7031-4.4453 3.707-5.9922 5.957-28.164 8.9766-49.176 30.93-53.578 58.695zm98.84-14.035c-3.4141 0-6.9219-0.29297-10.406-0.82812-9.7227-1.5586-18.703-5.1055-25.258-10.023-4.9375-3.7305-8.332-8.1406-9.9922-12.812 1.8945 3.2578 4.6016 6.3047 8.1875 9.0156 6.5508 4.9297 15.523 8.4883 25.258 10.012 3.4961 0.55859 6.9883 0.82812 10.406 0.82812 18.672 0 32-7.9727 33.957-20.316 0.49219-3.0586 0.13281-6.1836-0.89453-9.1719 2.3516 4.1445 3.4062 8.5586 2.6875 12.98-1.9375 12.344-15.273 20.316-33.945 20.316zm56.48-15.723c-7.4688-9.1289-16.812-16.543-27.383-22.109-1.043-1.7031-2.2734-3.3594-3.7969-4.9297 11.426 5.668 21.438 13.539 29.367 23.238 4.3438 5.2852 7.7734 10.953 10.504 16.812-2.4062-4.5234-5.3086-8.8711-8.6914-13.012z"/>
  <path d="m239.16 253.71c0 2.4492-4.7031 4.4336-10.504 4.4336-5.8047 0-10.508-1.9844-10.508-4.4336 0-2.4492 4.7031-4.4375 10.508-4.4375 5.8008 0 10.504 1.9883 10.504 4.4375"/>
  <path d="m285.5 316.6c3.6172-22.859 15.727-42.637 33.141-57.062-18.426-26.266-51.062-43.793-88.367-43.793-57.59 0-104.27 41.609-104.27 92.938 0 51.352 46.68 92.973 104.27 92.973 26.008 0 49.727-8.5469 67.996-22.59-11.594-19.145-16.176-40.836-12.77-62.465zm-145.75-4.2109c0 17.328 5.8008 33.41 15.691 47.008-12.332-14.055-19.746-31.594-19.746-50.715 0-35.191 24.922-65.328 60.02-77.504-2.1602 1.5469-3.9766 3.2695-5.5234 5.1055-30.09 15.055-50.441 43.512-50.441 76.105zm54.957-62.711c0-9.8242 15.031-17.773 33.543-17.773 18.523 0 33.555 7.9414 33.555 17.773 0 9.832-15.031 17.773-33.555 17.773-18.512 0.003906-33.543-7.9492-33.543-17.773zm42.324 29.582c-7.8633 0-15.133-1.1523-21.461-3.2148 3.9648 0.70703 8.2109 1.0977 12.668 1.0977 24.641 0 43.242-11.793 43.242-27.461 0-8.5234-5.5-15.895-14.469-20.867 7.0898 1.8594 13.832 4.4336 20.137 7.6055 3.3828 4.0977 5.3438 8.8125 5.3438 13.965 0 16.453-19.543 28.875-45.461 28.875z"/>
  <path d="m313.03 175.93c-4.1328 1.5117-7.9961 1.3203-8.6328-0.42188-0.63672-1.7422 2.1953-4.3789 6.3242-5.8906 4.1328-1.5078 7.9961-1.3203 8.6328 0.42578 0.63672 1.7422-2.1953 4.3789-6.3242 5.8867"/>
  <path d="m276.64 173.84c-0.26953 2.0391-0.078125 4.0547 0.37891 6.082-6.875 8.3203-11.535 17.84-13.629 27.73 26.691 7.125 50.02 22.613 65.477 44.574 17.215-11.031 38.191-17.527 60.93-17.527 3.0234 0 6.0586 0.13281 9.1055 0.35938 7.3008-15.871 8.8047-33.734 2.6875-50.547-13.293-36.59-57.355-54.152-98.426-39.246-28.66 10.414-48.238 33.938-52.941 59.652 3.2148 0.49219 6.4414 0.94141 9.5742 1.6797 2.1484-11.871 7.8828-23.273 16.844-32.758zm29.297-16.531c13.195-4.793 25.961-3.0234 28.504 3.9766 2.5547 7.0117-6.1055 16.586-19.309 21.379-13.203 4.793-25.984 3.0234-28.539-4-2.5156-6.9766 6.1172-16.551 19.344-21.355zm12.512 34.461c2.5742-0.91797 5.0742-2.0508 7.4023-3.293 14.402-7.7266 21.516-19.969 17.707-30.488-1.1875-3.3047-3.3477-6.1055-6.293-8.2305 7.5703 0.42578 14.965 2.0508 21.93 4.8281 6.1367 2.4297 11.625 5.6914 16.418 9.6094-3.9766-2.8008-8.2891-5.2188-13.035-7.125-6.9648-2.7891-14.371-4.3789-21.93-4.8164 2.9336 2.1289 5.0742 4.9297 6.2812 8.2305 3.832 10.516-3.2812 22.77-17.684 30.496-2.3398 1.2539-4.8477 2.3633-7.4141 3.3047-14.875 5.4219-28.852 3.8398-36.379-3.1484 7.9414 4.7422 20.141 5.3359 32.996 0.63281z"/>
  <path d="m477.81 157.98c-38.258 8.8047-65.418 34.105-66.629 57.086 34.496-10.047 94.898-25.848 130.73-24.852-20.586 5.332-88.961 30.328-124.98 43.656 13.352 18.031 48.273 26.488 84.547 15.625 53.73-16.074 72.523-72.555 72.523-72.555s-41.809-31.449-96.188-18.961z"/>
  <path d="m168.77 204.31c22.211 10.672 45.516 8.7812 55.957-1.4453-21.797-12.23-63.203-35.281-75.879-40.789 23.117 3.0117 60.344 19.309 81.48 29.301 1.5664-14.906-13.305-33.926-37.004-43.488-33.68-13.562-63.762 2.3984-63.762 2.3984-0.003906-0.003906 6.3125 38.199 39.207 54.023z"/>
  <use x="70" y="728" xlink:href="#l"/>
  <use x="111.097656" y="728" xlink:href="#h"/>
  <use x="138.714844" y="728" xlink:href="#a"/>
  <use x="176.695312" y="728" xlink:href="#g"/>
  <use x="214.484375" y="728" xlink:href="#f"/>
  <use x="241.253906" y="728" xlink:href="#a"/>
  <use x="279.234375" y="728" xlink:href="#e"/>
  <use x="338.816406" y="728" xlink:href="#d"/>
  <use x="378.902344" y="728" xlink:href="#c"/>
  <use x="434.902344" y="728" xlink:href="#b"/>
  <use x="478.296875" y="728" xlink:href="#k"/>
  <use x="497.492188" y="728" xlink:href="#j"/>
  <use x="530.6875" y="728" xlink:href="#i"/>
 </g>
</svg>
