<?xml version="1.0" encoding="UTF-8"?>
<svg width="700pt" height="700pt" version="1.1" viewBox="0 0 700 700" xmlns="http://www.w3.org/2000/svg" xmlns:xlink="http://www.w3.org/1999/xlink">
 <defs>
  <symbol id="n" overflow="visible">
   <path d="m33.5-2c-1.7305 0.89844-3.5312 1.5703-5.4062 2.0156-1.8672 0.45703-3.8203 0.6875-5.8594 0.6875-6.0625 0-10.871-1.6914-14.422-5.0781-3.5547-3.3945-5.3281-8-5.3281-13.812 0-5.8203 1.7734-10.43 5.3281-13.828 3.5508-3.3945 8.3594-5.0938 14.422-5.0938 2.0391 0 3.9922 0.23047 5.8594 0.6875 1.875 0.44922 3.6758 1.1211 5.4062 2.0156v7.5469c-1.7422-1.1875-3.4609-2.0547-5.1562-2.6094-1.6875-0.55078-3.4688-0.82812-5.3438-0.82812-3.3555 0-5.9961 1.0742-7.9219 3.2188-1.918 2.1484-2.875 5.1094-2.875 8.8906 0 3.7617 0.95703 6.7148 2.875 8.8594 1.9258 2.1484 4.5664 3.2188 7.9219 3.2188 1.875 0 3.6562-0.27344 5.3438-0.82812 1.6953-0.55078 3.4141-1.4219 5.1562-2.6094z"/>
  </symbol>
  <symbol id="h" overflow="visible">
   <path d="m24.516-19.891c-0.77344-0.36328-1.5391-0.62891-2.2969-0.79688-0.75-0.17578-1.5078-0.26562-2.2656-0.26562-2.25 0-3.9844 0.72656-5.2031 2.1719-1.2109 1.4375-1.8125 3.5-1.8125 6.1875v12.594h-8.7344v-27.344h8.7344v4.4844c1.125-1.7812 2.4141-3.082 3.875-3.9062 1.457-0.82031 3.2031-1.2344 5.2344-1.2344 0.28906 0 0.60938 0.011719 0.95312 0.03125 0.34375 0.023438 0.83594 0.074219 1.4844 0.15625z"/>
  </symbol>
  <symbol id="a" overflow="visible">
   <path d="m31.5-13.75v2.5h-20.438c0.20703 2.0547 0.94531 3.5898 2.2188 4.6094 1.2695 1.0234 3.0469 1.5312 5.3281 1.5312 1.832 0 3.7109-0.26953 5.6406-0.8125 1.9375-0.53906 3.9219-1.3672 5.9531-2.4844v6.75c-2.0742 0.78125-4.1406 1.3711-6.2031 1.7656s-4.1328 0.59375-6.2031 0.59375c-4.9492 0-8.793-1.2539-11.531-3.7656-2.7422-2.5195-4.1094-6.0469-4.1094-10.578 0-4.4688 1.3438-7.9766 4.0312-10.531 2.6953-2.5508 6.4062-3.8281 11.125-3.8281 4.2891 0 7.7266 1.2969 10.312 3.8906 2.582 2.5859 3.875 6.0391 3.875 10.359zm-8.9844-2.9062c0-1.6562-0.48438-2.9883-1.4531-4-0.96875-1.0195-2.2344-1.5312-3.7969-1.5312-1.6992 0-3.0781 0.47656-4.1406 1.4219-1.0547 0.94922-1.7109 2.3203-1.9688 4.1094z"/>
  </symbol>
  <symbol id="c" overflow="visible">
   <path d="m16.453-12.312c-1.8242 0-3.1953 0.3125-4.1094 0.9375-0.91797 0.61719-1.375 1.5273-1.375 2.7344 0 1.1055 0.36719 1.9688 1.1094 2.5938 0.73828 0.625 1.7656 0.9375 3.0781 0.9375 1.6445 0 3.0312-0.58594 4.1562-1.7656 1.125-1.1758 1.6875-2.6484 1.6875-4.4219v-1.0156zm13.359-3.2812v15.594h-8.8125v-4.0469c-1.1797 1.6562-2.5 2.8672-3.9688 3.625-1.4609 0.75-3.2422 1.125-5.3438 1.125-2.8242 0-5.1211-0.82031-6.8906-2.4688-1.7617-1.6562-2.6406-3.8008-2.6406-6.4375 0-3.207 1.0977-5.5547 3.2969-7.0469 2.207-1.5 5.6719-2.25 10.391-2.25h5.1562v-0.6875c0-1.3828-0.54688-2.3945-1.6406-3.0312-1.0938-0.64453-2.793-0.96875-5.0938-0.96875-1.875 0-3.6211 0.1875-5.2344 0.5625-1.6172 0.375-3.1094 0.93359-4.4844 1.6719v-6.6562c1.8633-0.45703 3.7383-0.80078 5.625-1.0312 1.8945-0.23828 3.7852-0.35938 5.6719-0.35938 4.9375 0 8.5 0.97656 10.688 2.9219 2.1875 1.9375 3.2812 5.1016 3.2812 9.4844z"/>
  </symbol>
  <symbol id="b" overflow="visible">
   <path d="m13.75-35.109v7.7656h9v6.25h-9v11.594c0 1.2734 0.25 2.1328 0.75 2.5781 0.50781 0.44922 1.5078 0.67188 3 0.67188h4.5v6.25h-7.5c-3.4492 0-5.8984-0.71875-7.3438-2.1562-1.4375-1.4453-2.1562-3.8945-2.1562-7.3438v-11.594h-4.3438v-6.25h4.3438v-7.7656z"/>
  </symbol>
  <symbol id="g" overflow="visible">
   <path d="m22.797-23.344v-14.641h8.7969v37.984h-8.7969v-3.9531c-1.1992 1.6172-2.5234 2.7969-3.9688 3.5469-1.4492 0.73828-3.125 1.1094-5.0312 1.1094-3.375 0-6.1484-1.3359-8.3125-4.0156-2.1562-2.6758-3.2344-6.1172-3.2344-10.328 0-4.2188 1.0781-7.6641 3.2344-10.344 2.1641-2.6758 4.9375-4.0156 8.3125-4.0156 1.8828 0 3.5547 0.38281 5.0156 1.1406 1.457 0.75 2.7852 1.9219 3.9844 3.5156zm-5.75 17.703c1.8633 0 3.2852-0.67969 4.2656-2.0469 0.98828-1.3633 1.4844-3.3477 1.4844-5.9531 0-2.6016-0.49609-4.5859-1.4844-5.9531-0.98047-1.375-2.4023-2.0625-4.2656-2.0625-1.8555 0-3.2773 0.6875-4.2656 2.0625-0.99219 1.3672-1.4844 3.3516-1.4844 5.9531 0 2.6055 0.49219 4.5898 1.4844 5.9531 0.98828 1.3672 2.4102 2.0469 4.2656 2.0469z"/>
  </symbol>
  <symbol id="f" overflow="visible">
   <path d="m18.75-5.6406c1.875 0 3.3008-0.67969 4.2812-2.0469 0.98828-1.3633 1.4844-3.3477 1.4844-5.9531 0-2.6016-0.49609-4.5859-1.4844-5.9531-0.98047-1.375-2.4062-2.0625-4.2812-2.0625s-3.3125 0.6875-4.3125 2.0625-1.5 3.3594-1.5 5.9531c0 2.5859 0.5 4.5625 1.5 5.9375s2.4375 2.0625 4.3125 2.0625zm-5.8125-17.703c1.207-1.5938 2.5391-2.7656 4-3.5156 1.4688-0.75781 3.1562-1.1406 5.0625-1.1406 3.3633 0 6.1289 1.3398 8.2969 4.0156 2.1641 2.6797 3.25 6.125 3.25 10.344 0 4.2109-1.0859 7.6523-3.25 10.328-2.168 2.6797-4.9336 4.0156-8.2969 4.0156-1.9062 0-3.5938-0.375-5.0625-1.125-1.4609-0.75781-2.793-1.9375-4-3.5312v3.9531h-8.7344v-37.984h8.7344z"/>
  </symbol>
  <symbol id="e" overflow="visible">
   <path d="m0.60938-27.344h8.7344l7.3594 18.547 6.25-18.547h8.7344l-11.5 29.938c-1.1562 3.0391-2.5078 5.1641-4.0469 6.375-1.5312 1.2188-3.5586 1.8281-6.0781 1.8281h-5.0625v-5.75h2.7344c1.4883 0 2.5664-0.23438 3.2344-0.70312 0.67578-0.46875 1.2031-1.3125 1.5781-2.5312l0.25-0.76562z"/>
  </symbol>
  <symbol id="d" overflow="visible">
   <path d="m4.5938-36.453h25.359v7.1094h-15.969v6.7812h15.016v7.1094h-15.016v8.3438h16.516v7.1094h-25.906z"/>
  </symbol>
  <symbol id="m" overflow="visible">
   <path d="m25.562-26.484v6.6406c-1.875-0.78125-3.6836-1.3633-5.4219-1.75-1.7422-0.39453-3.3867-0.59375-4.9375-0.59375-1.6562 0-2.8906 0.21094-3.7031 0.625-0.80469 0.40625-1.2031 1.043-1.2031 1.9062 0 0.69922 0.30469 1.2344 0.92188 1.6094 0.61328 0.375 1.707 0.65234 3.2812 0.82812l1.5469 0.21875c4.4688 0.57422 7.4727 1.5117 9.0156 2.8125 1.5508 1.3047 2.3281 3.3438 2.3281 6.125 0 2.918-1.0742 5.1094-3.2188 6.5781-2.1484 1.4609-5.3555 2.1875-9.625 2.1875-1.8047 0-3.668-0.14062-5.5938-0.42188-1.9297-0.28125-3.9141-0.70703-5.9531-1.2812v-6.6406c1.7383 0.84375 3.5234 1.4805 5.3594 1.9062 1.832 0.41797 3.6914 0.625 5.5781 0.625 1.707 0 2.9922-0.23438 3.8594-0.70312 0.86328-0.46875 1.2969-1.1641 1.2969-2.0938 0-0.78125-0.29688-1.3633-0.89062-1.75-0.59375-0.38281-1.7773-0.67969-3.5469-0.89062l-1.5469-0.20312c-3.8867-0.47656-6.6094-1.3789-8.1719-2.7031-1.5625-1.3203-2.3438-3.3203-2.3438-6 0-2.8945 0.98828-5.0391 2.9688-6.4375 1.9883-1.4062 5.0352-2.1094 9.1406-2.1094 1.6016 0 3.2891 0.125 5.0625 0.375 1.7812 0.24219 3.7109 0.62109 5.7969 1.1406z"/>
  </symbol>
  <symbol id="l" overflow="visible">
   <path d="m0.75-27.344h8.75l6.8125 18.891 6.7812-18.891h8.7656l-10.766 27.344h-9.5938z"/>
  </symbol>
  <symbol id="k" overflow="visible">
   <path d="m16.453-12.312c-1.8242 0-3.1953 0.3125-4.1094 0.9375-0.91797 0.61719-1.375 1.5273-1.375 2.7344 0 1.1055 0.36719 1.9688 1.1094 2.5938 0.73828 0.625 1.7656 0.9375 3.0781 0.9375 1.6445 0 3.0312-0.58594 4.1562-1.7656 1.125-1.1758 1.6875-2.6484 1.6875-4.4219v-1.0156zm13.359-3.2812v15.594h-8.8125v-4.0469c-1.1797 1.6562-2.5 2.8672-3.9688 3.625-1.4609 0.75-3.2422 1.125-5.3438 1.125-2.8242 0-5.1211-0.82031-6.8906-2.4688-1.7617-1.6562-2.6406-3.8008-2.6406-6.4375 0-3.207 1.0977-5.5547 3.2969-7.0469 2.207-1.5 5.6719-2.25 10.391-2.25h5.1562v-0.6875c0-1.3828-0.54688-2.3945-1.6406-3.0312-1.0938-0.64453-2.793-0.96875-5.0938-0.96875-1.875 0-3.6211 0.1875-5.2344 0.5625-1.6172 0.375-3.1094 0.93359-4.4844 1.6719v-6.6562c1.8633-0.45703 3.7383-0.80078 5.625-1.0312 1.8945-0.23828 3.7852-0.35938 5.6719-0.35938 4.9375 0 8.5 0.97656 10.688 2.9219 2.1875 1.9375 3.2812 5.1016 3.2812 9.4844zm-12.266-17.703-1.3438-0.90625c-0.0625-0.03125-0.14062-0.078125-0.23438-0.14062-0.77344-0.50781-1.3594-0.76562-1.7656-0.76562-0.58594 0-1.0312 0.25781-1.3438 0.76562-0.3125 0.5-0.46875 1.2305-0.46875 2.1875v0.20312h-3.3906c0-2.2188 0.41406-3.9258 1.25-5.125 0.84375-1.207 2.0234-1.8125 3.5469-1.8125 0.58203 0 1.1719 0.10938 1.7656 0.32812s1.2227 0.57422 1.8906 1.0625l1.4844 1.0469c0.36328 0.25 0.69141 0.44531 0.98438 0.57812 0.30078 0.125 0.57812 0.1875 0.82812 0.1875 0.58203 0 1.0352-0.25781 1.3594-0.78125 0.33203-0.51953 0.5-1.2422 0.5-2.1719v-0.20312h3.3906c0 2.2188-0.42188 3.9336-1.2656 5.1406-0.83594 1.1992-2.0078 1.7969-3.5156 1.7969-0.59375 0-1.1641-0.097656-1.7031-0.29688-0.54297-0.19531-1.1992-0.5625-1.9688-1.0938z"/>
  </symbol>
  <symbol id="j" overflow="visible">
   <path d="m17.219-21.75c-1.9375 0-3.418 0.69922-4.4375 2.0938-1.0234 1.3867-1.5312 3.3906-1.5312 6.0156 0 2.6172 0.50781 4.6211 1.5312 6.0156 1.0195 1.3867 2.5 2.0781 4.4375 2.0781 1.8945 0 3.3477-0.69141 4.3594-2.0781 1.0078-1.3945 1.5156-3.3984 1.5156-6.0156 0-2.625-0.50781-4.6289-1.5156-6.0156-1.0117-1.3945-2.4648-2.0938-4.3594-2.0938zm0-6.25c4.6953 0 8.3672 1.2734 11.016 3.8125 2.6445 2.5312 3.9688 6.0469 3.9688 10.547 0 4.4922-1.3242 8.0078-3.9688 10.547-2.6484 2.5312-6.3203 3.7969-11.016 3.7969-4.7305 0-8.4219-1.2656-11.078-3.7969-2.6562-2.5391-3.9844-6.0547-3.9844-10.547 0-4.5 1.3281-8.0156 3.9844-10.547 2.6562-2.5391 6.3477-3.8125 11.078-3.8125z"/>
  </symbol>
  <symbol id="i" overflow="visible">
   <path d="m29.953-35.297v7.7031c-2-0.89453-3.9531-1.5664-5.8594-2.0156-1.9062-0.45703-3.7031-0.6875-5.3906-0.6875-2.25 0-3.9141 0.3125-4.9844 0.9375-1.0742 0.61719-1.6094 1.5742-1.6094 2.875 0 0.96875 0.35938 1.7305 1.0781 2.2812 0.72656 0.54297 2.0469 1.0117 3.9531 1.4062l4 0.79688c4.0508 0.8125 6.9297 2.0547 8.6406 3.7188 1.707 1.6562 2.5625 4.0156 2.5625 7.0781 0 4.0234-1.1953 7.0117-3.5781 8.9688-2.375 1.9609-6.0156 2.9375-10.922 2.9375-2.3125 0-4.6367-0.21875-6.9688-0.65625-2.3242-0.4375-4.6484-1.0859-6.9688-1.9531v-7.9375c2.3203 1.2422 4.5703 2.1719 6.75 2.7969 2.1758 0.625 4.2695 0.9375 6.2812 0.9375 2.0508 0 3.625-0.33594 4.7188-1.0156 1.0938-0.6875 1.6406-1.6641 1.6406-2.9375 0-1.1328-0.375-2.0078-1.125-2.625-0.74219-0.625-2.2148-1.1797-4.4219-1.6719l-3.6406-0.79688c-3.6484-0.78125-6.3125-2.0234-8-3.7344-1.6797-1.707-2.5156-4.0156-2.5156-6.9219 0-3.625 1.1719-6.4102 3.5156-8.3594 2.3438-1.957 5.7109-2.9375 10.109-2.9375 2 0 4.0547 0.15234 6.1719 0.45312 2.1133 0.30469 4.3008 0.75781 6.5625 1.3594z"/>
  </symbol>
 </defs>
 <g>
  <path d="m383.2 245.6c-15.398-12.398-33.102-11.602-48.602-10.801s-27.398 1.3008-36.801-8.3008h0.003906c-1.1484-1.2812-2.7656-2.0391-4.4844-2.0977-1.7227-0.058594-3.3906 0.58984-4.6172 1.7891-1.2305 1.2031-1.9141 2.8555-1.8984 4.5781 0.019531 1.7188 0.74219 3.3555 2 4.5312 13.398 13.699 30 12.898 46.398 12.102 14.602-0.69922 28.398-1.3984 40 8v-0.003906c2.707 2.2109 6.6914 1.8086 8.9023-0.89844 2.207-2.707 1.8047-6.6914-0.90234-8.8984z"/>
  <path d="m470.9 486.6v-6.6016c-0.42188-6.5312-3.6719-12.559-8.8984-16.5 23-13.324 42.051-32.523 55.191-55.629 13.145-23.105 19.91-49.289 19.609-75.871v-5c0.23047-4.3438-1.3867-8.5859-4.457-11.672-3.0664-3.0859-7.2969-4.7305-11.645-4.5273h-16.5c0.16406-0.79297 0.16406-1.6094 0-2.4023-1.0508-13.98-6.2773-27.32-15-38.297-9.6836-13.59-24.711-22.395-41.301-24.203-2.4609-8.9961-6.7891-17.379-12.699-24.598l78-135c3.1172-5.5039 3.875-12.031 2.1016-18.102-1.1094-6.4336-5.457-11.84-11.5-14.301-5.5273-3.1875-12.156-3.8398-18.199-1.7969-6.082 1.8555-11.141 6.1211-14 11.797l-69.102 136.1c-14.543-4.5391-29.473-7.7188-44.602-9.5-33.5-5-62.398-9.3008-68.5-39.102-0.47266-1.9531-1.8477-3.5664-3.707-4.3359-1.8594-0.77344-3.9727-0.60938-5.6914 0.4375-20.906 12.961-35.773 33.73-41.301 57.699-4.7891 17.574-6.4492 35.852-4.8984 54-6.7422 2.543-12.801 6.6172-17.699 11.902-10.438 10.875-16.859 24.984-18.203 40h-16.598c-4.5547-0.27344-9.0273 1.2852-12.426 4.3242-3.4023 3.043-5.4414 7.3203-5.6758 11.875v5c-0.03125 26.789 7.0625 53.109 20.559 76.254 13.496 23.145 32.906 42.281 56.242 55.445-4.5664 4.2188-7.1133 10.184-7 16.398v6.2031c-0.10938 5.7344 2.0234 11.285 5.9453 15.469 3.9219 4.1836 9.3242 6.6719 15.055 6.9297h194.2c5.9219-0.14844 11.566-2.5469 15.785-6.707 4.2148-4.1602 6.6875-9.7734 6.9141-15.691zm12.102-416.6c1.3203-2.6445 3.6719-4.6328 6.5-5.5 1.0938-0.16406 2.207-0.16406 3.3008 0 3.6367 0.16016 6.9531 2.125 8.8438 5.2383 1.8867 3.1133 2.0938 6.9609 0.55469 10.262l-76.098 132.7c-3.7461-2.8867-7.7656-5.3984-12-7.5zm-257.8 210c4.0273-4.7539 9.5742-7.9688 15.699-9.1016 1.8398-0.066407 3.5664-0.91016 4.7461-2.3203 1.1836-1.4102 1.7109-3.2539 1.457-5.0781-4.1992-27.398 1.3008-76.699 32.301-100 11.301 30.5 44.398 35.5 76.5 40h-0.003906c13.773 1.6328 27.387 4.4102 40.703 8.3008 4.0156 1.3008 7.9258 2.9062 11.699 4.8008 4.0391 2.0156 7.832 4.5 11.301 7.3984 3.4062 2.9102 6.4023 6.2773 8.8984 10 4.0547 6.0781 6.9375 12.863 8.5 20 0.65625 2.8867 3.2383 4.9258 6.1992 4.8984 34 0 48.602 37.699 48.602 50v0.10156c-0.14062 0.72656-0.14062 1.4727 0 2.1992h-281c0.73828-11.832 5.875-22.961 14.398-31.199zm-47.398 52.5v-5c-0.26562-1.1445-0.054687-2.3438 0.58984-3.3242 0.64062-0.98438 1.6562-1.6602 2.8086-1.875h339.5c2.7695 0.19922 4.957 2.4258 5.1016 5.1992v5c-0.13281 8.9258-1.2422 17.812-3.3008 26.5h-343.5c-1.2812-8.8047-1.6484-17.719-1.1016-26.602zm4.1992 41.102h337.5c-12.145 38.359-39.41 70.105-75.5 87.898h-185.6v-0.5c-36.691-17.023-64.426-48.832-76.297-87.5zm61.699 113.1v-6.7031c0.67578-4.9023 5.0703-8.418 10-8h194.5c2.1641-0.14844 4.2891 0.64453 5.8203 2.1797 1.5352 1.5312 2.332 3.6562 2.1797 5.8203v6.1992c0.12891 2.1328-0.68359 4.2148-2.2227 5.6953-1.5391 1.4805-3.6523 2.2148-5.7773 2.0039h-194.4c-4.7305 0.55859-9.0898-2.625-10-7.2969z"/>
  <use x="70" y="710" xlink:href="#n"/>
  <use x="106.695312" y="710" xlink:href="#h"/>
  <use x="131.351562" y="710" xlink:href="#a"/>
  <use x="165.265625" y="710" xlink:href="#c"/>
  <use x="199.003906" y="710" xlink:href="#b"/>
  <use x="222.90625" y="710" xlink:href="#a"/>
  <use x="256.816406" y="710" xlink:href="#g"/>
  <use x="310.015625" y="710" xlink:href="#f"/>
  <use x="345.804688" y="710" xlink:href="#e"/>
  <use x="395.804688" y="710" xlink:href="#d"/>
  <use x="429.960938" y="710" xlink:href="#m"/>
  <use x="459.722656" y="710" xlink:href="#b"/>
  <use x="483.625" y="710" xlink:href="#a"/>
  <use x="517.535156" y="710" xlink:href="#l"/>
  <use x="550.125" y="710" xlink:href="#k"/>
  <use x="583.867188" y="710" xlink:href="#j"/>
  <use x="635.625" y="710" xlink:href="#i"/>
  <use x="671.636719" y="710" xlink:href="#c"/>
 </g>
</svg>
